<svg width="1280" height="720" xmlns="http://www.w3.org/2000/svg" xmlns:xlink="http://www.w3.org/1999/xlink" overflow="hidden"><defs><filter id="fx0" x="-10%" y="-10%" width="120%" height="120%" filterUnits="userSpaceOnUse" primitiveUnits="userSpaceOnUse"><feComponentTransfer color-interpolation-filters="sRGB"><feFuncR type="discrete" tableValues="0 0"/><feFuncG type="discrete" tableValues="0 0"/><feFuncB type="discrete" tableValues="0 0"/><feFuncA type="linear" slope="0.4" intercept="0"/></feComponentTransfer><feGaussianBlur stdDeviation="1.77778 1.77778"/></filter><filter id="fx1" x="-10%" y="-10%" width="120%" height="120%" filterUnits="userSpaceOnUse" primitiveUnits="userSpaceOnUse"><feComponentTransfer color-interpolation-filters="sRGB"><feFuncR type="discrete" tableValues="0 0"/><feFuncG type="discrete" tableValues="0 0"/><feFuncB type="discrete" tableValues="0 0"/><feFuncA type="linear" slope="0.4" intercept="0"/></feComponentTransfer><feGaussianBlur stdDeviation="6.66667 6.66667"/></filter><filter id="fx2" x="-10%" y="-10%" width="120%" height="120%" filterUnits="userSpaceOnUse" primitiveUnits="userSpaceOnUse"><feComponentTransfer color-interpolation-filters="sRGB"><feFuncR type="discrete" tableValues="0 0"/><feFuncG type="discrete" tableValues="0 0"/><feFuncB type="discrete" tableValues="0 0"/><feFuncA type="linear" slope="0.4" intercept="0"/></feComponentTransfer><feGaussianBlur stdDeviation="1.77778 1.77778"/></filter><filter id="fx3" x="-10%" y="-10%" width="120%" height="120%" filterUnits="userSpaceOnUse" primitiveUnits="userSpaceOnUse"><feComponentTransfer color-interpolation-filters="sRGB"><feFuncR type="discrete" tableValues="0 0"/><feFuncG type="discrete" tableValues="0 0"/><feFuncB type="discrete" tableValues="0 0"/><feFuncA type="linear" slope="0.4" intercept="0"/></feComponentTransfer><feGaussianBlur stdDeviation="6.66667 6.66667"/></filter><filter id="fx4" x="-10%" y="-10%" width="120%" height="120%" filterUnits="userSpaceOnUse" primitiveUnits="userSpaceOnUse"><feComponentTransfer color-interpolation-filters="sRGB"><feFuncR type="discrete" tableValues="0 0"/><feFuncG type="discrete" tableValues="0 0"/><feFuncB type="discrete" tableValues="0 0"/><feFuncA type="linear" slope="0.4" intercept="0"/></feComponentTransfer><feGaussianBlur stdDeviation="1.77778 1.77778"/></filter><filter id="fx5" x="-10%" y="-10%" width="120%" height="120%" filterUnits="userSpaceOnUse" primitiveUnits="userSpaceOnUse"><feComponentTransfer color-interpolation-filters="sRGB"><feFuncR type="discrete" tableValues="0 0"/><feFuncG type="discrete" tableValues="0 0"/><feFuncB type="discrete" tableValues="0 0"/><feFuncA type="linear" slope="0.4" intercept="0"/></feComponentTransfer><feGaussianBlur stdDeviation="6.66667 6.66667"/></filter><filter id="fx6" x="-10%" y="-10%" width="120%" height="120%" filterUnits="userSpaceOnUse" primitiveUnits="userSpaceOnUse"><feComponentTransfer color-interpolation-filters="sRGB"><feFuncR type="discrete" tableValues="0 0"/><feFuncG type="discrete" tableValues="0 0"/><feFuncB type="discrete" tableValues="0 0"/><feFuncA type="linear" slope="0.4" intercept="0"/></feComponentTransfer><feGaussianBlur stdDeviation="1.77778 1.77778"/></filter><filter id="fx7" x="-10%" y="-10%" width="120%" height="120%" filterUnits="userSpaceOnUse" primitiveUnits="userSpaceOnUse"><feComponentTransfer color-interpolation-filters="sRGB"><feFuncR type="discrete" tableValues="0 0"/><feFuncG type="discrete" tableValues="0 0"/><feFuncB type="discrete" tableValues="0 0"/><feFuncA type="linear" slope="0.4" intercept="0"/></feComponentTransfer><feGaussianBlur stdDeviation="6.66667 6.66667"/></filter><filter id="fx8" x="-10%" y="-10%" width="120%" height="120%" filterUnits="userSpaceOnUse" primitiveUnits="userSpaceOnUse"><feComponentTransfer color-interpolation-filters="sRGB"><feFuncR type="discrete" tableValues="0 0"/><feFuncG type="discrete" tableValues="0 0"/><feFuncB type="discrete" tableValues="0 0"/><feFuncA type="linear" slope="0.4" intercept="0"/></feComponentTransfer><feGaussianBlur stdDeviation="1.77778 1.77778"/></filter><filter id="fx9" x="-10%" y="-10%" width="120%" height="120%" filterUnits="userSpaceOnUse" primitiveUnits="userSpaceOnUse"><feComponentTransfer color-interpolation-filters="sRGB"><feFuncR type="discrete" tableValues="0 0"/><feFuncG type="discrete" tableValues="0 0"/><feFuncB type="discrete" tableValues="0 0"/><feFuncA type="linear" slope="0.4" intercept="0"/></feComponentTransfer><feGaussianBlur stdDeviation="6.66667 6.66667"/></filter><clipPath id="clip10"><rect x="0" y="0" width="1280" height="720"/></clipPath><linearGradient x1="857.25" y1="105.75" x2="1367.75" y2="616.25" gradientUnits="userSpaceOnUse" spreadMethod="reflect" id="fill11"><stop offset="0" stop-color="#2F5597"/><stop offset="0.9" stop-color="#B4C7E7"/><stop offset="1" stop-color="#B4C7E7"/></linearGradient><linearGradient x1="70.5" y1="119.5" x2="259.5" y2="308.5" gradientUnits="userSpaceOnUse" spreadMethod="reflect" id="fill12"><stop offset="0" stop-color="#EDEEF3"/><stop offset="0.9" stop-color="#FFFFFF"/><stop offset="1" stop-color="#FFFFFF"/></linearGradient><linearGradient x1="367" y1="119" x2="556" y2="308" gradientUnits="userSpaceOnUse" spreadMethod="reflect" id="fill13"><stop offset="0" stop-color="#EDEEF3"/><stop offset="0.9" stop-color="#FFFFFF"/><stop offset="1" stop-color="#FFFFFF"/></linearGradient><linearGradient x1="663.25" y1="118.75" x2="852.75" y2="308.25" gradientUnits="userSpaceOnUse" spreadMethod="reflect" id="fill14"><stop offset="0" stop-color="#EDEEF3"/><stop offset="0.9" stop-color="#FFFFFF"/><stop offset="1" stop-color="#FFFFFF"/></linearGradient><linearGradient x1="982.75" y1="130.25" x2="1243.25" y2="390.75" gradientUnits="userSpaceOnUse" spreadMethod="reflect" id="fill15"><stop offset="0" stop-color="#EDEEF3"/><stop offset="0.9" stop-color="#FFFFFF"/><stop offset="1" stop-color="#FFFFFF"/></linearGradient><linearGradient x1="148.75" y1="206.25" x2="757.25" y2="814.75" gradientUnits="userSpaceOnUse" spreadMethod="reflect" id="fill16"><stop offset="0" stop-color="#EDEEF3"/><stop offset="0.9" stop-color="#FFFFFF"/><stop offset="1" stop-color="#FFFFFF"/></linearGradient></defs><g clip-path="url(#clip10)"><rect x="0" y="0" width="1280" height="720" fill="#FFFFFF"/><path d="M0 44.2943C-9.02333e-15 19.2789 20.2789-1 45.2943-1L1088.71-1C1113.72-1 1134 19.2789 1134 44.2943L1134 615.706C1134 640.721 1113.72 661 1088.71 661L45.2943 661C20.2789 661 0 640.721 0 615.706Z" fill="#F3F4F7" fill-rule="evenodd"/><path d="M961 52.5011C961 24.6101 983.61 2 1011.5 2L1213.5 2C1241.39 2 1264 24.6101 1264 52.5011L1264 669.499C1264 697.39 1241.39 720 1213.5 720L1011.5 720C983.61 720 961 697.39 961 669.499Z" fill="url(#fill11)" fill-rule="evenodd"/><g filter="url(#fx0)" transform="translate(38 144)"><g><path d="M6.82843 28.8288C6.82843 16.6783 16.6783 6.82843 28.8288 6.82843L230.828 6.82843C242.979 6.82843 252.828 16.6783 252.828 28.8288L252.828 116.828C252.828 128.979 242.979 138.828 230.828 138.828L28.8288 138.828C16.6783 138.828 6.82843 128.979 6.82843 116.828Z" fill="#D9D9D9" fill-rule="evenodd"/></g></g><path d="M42 170C42 157.85 51.8499 148 64.0004 148L266 148C278.15 148 288 157.85 288 170L288 258C288 270.15 278.15 280 266 280L64.0004 280C51.8499 280 42 270.15 42 258Z" fill="#D9D9D9" fill-rule="evenodd"/><g filter="url(#fx1)" transform="translate(35 141)"><g><path d="M21.1421 43.1425C21.1421 30.9921 30.992 21.1421 43.1425 21.1421L245.142 21.1421C257.292 21.1421 267.142 30.9921 267.142 43.1425L267.142 131.142C267.142 143.292 257.292 153.142 245.142 153.142L43.1425 153.142C30.992 153.142 21.1421 143.292 21.1421 131.142Z" fill="#FF0000" fill-rule="evenodd"/></g></g><path d="M42 170C42 157.85 51.8499 148 64.0004 148L266 148C278.15 148 288 157.85 288 170L288 258C288 270.15 278.15 280 266 280L64.0004 280C51.8499 280 42 270.15 42 258Z" fill="url(#fill12)" fill-rule="evenodd"/><g filter="url(#fx2)" transform="translate(335 143)"><g><path d="M6.82843 28.9955C6.82843 16.753 16.753 6.82843 28.9955 6.82843L229.661 6.82843C241.904 6.82843 251.828 16.753 251.828 28.9955L251.828 117.661C251.828 129.904 241.904 139.828 229.661 139.828L28.9955 139.828C16.753 139.828 6.82843 129.904 6.82843 117.661Z" fill="#D9D9D9" fill-rule="evenodd"/></g></g><path d="M339 169.167C339 156.925 348.925 147 361.167 147L561.833 147C574.075 147 584 156.925 584 169.167L584 257.833C584 270.075 574.075 280 561.833 280L361.167 280C348.925 280 339 270.075 339 257.833Z" fill="#D9D9D9" fill-rule="evenodd"/><g filter="url(#fx3)" transform="translate(332 140)"><g><path d="M21.1422 43.3092C21.1422 31.0667 31.0667 21.1421 43.3092 21.1421L243.975 21.1421C256.218 21.1421 266.142 31.0667 266.142 43.3092L266.142 131.975C266.142 144.218 256.218 154.142 243.975 154.142L43.3092 154.142C31.0667 154.142 21.1422 144.218 21.1422 131.975Z" fill="#FF0000" fill-rule="evenodd"/></g></g><path d="M339 169.167C339 156.925 348.925 147 361.167 147L561.833 147C574.075 147 584 156.925 584 169.167L584 257.833C584 270.075 574.075 280 561.833 280L361.167 280C348.925 280 339 270.075 339 257.833Z" fill="url(#fill13)" fill-rule="evenodd"/><g filter="url(#fx4)" transform="translate(631 143)"><g><path d="M6.82843 28.9956C6.82843 16.753 16.753 6.82843 28.9956 6.82843L230.661 6.82843C242.904 6.82843 252.828 16.753 252.828 28.9956L252.828 117.661C252.828 129.904 242.904 139.828 230.661 139.828L28.9956 139.828C16.753 139.828 6.82843 129.904 6.82843 117.661Z" fill="#D9D9D9" fill-rule="evenodd"/></g></g><path d="M635 169.167C635 156.925 644.925 147 657.167 147L858.833 147C871.075 147 881 156.925 881 169.167L881 257.833C881 270.075 871.075 280 858.833 280L657.167 280C644.925 280 635 270.075 635 257.833Z" fill="#D9D9D9" fill-rule="evenodd"/><g filter="url(#fx5)" transform="translate(628 140)"><g><path d="M21.1422 43.3093C21.1422 31.0667 31.0667 21.1421 43.3093 21.1421L244.975 21.1421C257.218 21.1421 267.142 31.0667 267.142 43.3093L267.142 131.975C267.142 144.218 257.218 154.142 244.975 154.142L43.3093 154.142C31.0667 154.142 21.1422 144.218 21.1422 131.975Z" fill="#FF0000" fill-rule="evenodd"/></g></g><path d="M635 169.167C635 156.925 644.925 147 657.167 147L858.833 147C871.075 147 881 156.925 881 169.167L881 257.833C881 270.075 871.075 280 858.833 280L657.167 280C644.925 280 635 270.075 635 257.833Z" fill="url(#fill14)" fill-rule="evenodd"/><g filter="url(#fx6)" transform="translate(948 157)"><g><path d="M6.82843 39.9958C6.82843 21.678 21.678 6.82843 39.9958 6.82843L295.661 6.82843C313.979 6.82843 328.828 21.678 328.828 39.9958L328.828 172.661C328.828 190.979 313.979 205.828 295.661 205.828L39.9958 205.828C21.678 205.828 6.82843 190.979 6.82843 172.661Z" fill="#D9D9D9" fill-rule="evenodd"/></g></g><path d="M952 194.167C952 175.85 966.85 161 985.167 161L1240.83 161C1259.15 161 1274 175.85 1274 194.167L1274 326.833C1274 345.15 1259.15 360 1240.83 360L985.167 360C966.85 360 952 345.15 952 326.833Z" fill="#D9D9D9" fill-rule="evenodd"/><g filter="url(#fx7)" transform="translate(945 154)"><g><path d="M21.1422 54.3095C21.1422 35.9917 35.9917 21.1421 54.3095 21.1421L309.975 21.1421C328.293 21.1421 343.142 35.9917 343.142 54.3095L343.142 186.975C343.142 205.293 328.293 220.142 309.975 220.142L54.3095 220.142C35.9917 220.142 21.1422 205.293 21.1422 186.975Z" fill="#FF0000" fill-rule="evenodd"/></g></g><path d="M952 194.167C952 175.85 966.85 161 985.167 161L1240.83 161C1259.15 161 1274 175.85 1274 194.167L1274 326.833C1274 345.15 1259.15 360 1240.83 360L985.167 360C966.85 360 952 345.15 952 326.833Z" fill="url(#fill15)" fill-rule="evenodd"/><g filter="url(#fx8)" transform="translate(21 326)"><g><path d="M6.82843 66.9965C6.82843 33.7666 33.7666 6.82843 66.9965 6.82843L802.66 6.82843C835.89 6.82843 862.828 33.7666 862.828 66.9965L862.828 307.66C862.828 340.89 835.89 367.828 802.66 367.828L66.9965 367.828C33.7666 367.828 6.82843 340.89 6.82843 307.66Z" fill="#D9D9D9" fill-rule="evenodd"/></g></g><path d="M25 390.168C25 356.938 51.9382 330 85.1681 330L820.832 330C854.062 330 881 356.938 881 390.168L881 630.832C881 664.062 854.062 691 820.832 691L85.1681 691C51.9382 691 25 664.062 25 630.832Z" fill="#D9D9D9" fill-rule="evenodd"/><g filter="url(#fx9)" transform="translate(18 323)"><g><path d="M21.1421 81.3102C21.1421 48.0803 48.0803 21.1422 81.3102 21.1422L816.974 21.1422C850.204 21.1422 877.142 48.0803 877.142 81.3102L877.142 321.974C877.142 355.204 850.204 382.142 816.974 382.142L81.3102 382.142C48.0803 382.142 21.1421 355.204 21.1421 321.974Z" fill="#FF0000" fill-rule="evenodd"/></g></g><path d="M25 390.168C25 356.938 51.9382 330 85.1681 330L820.832 330C854.062 330 881 356.938 881 390.168L881 630.832C881 664.062 854.062 691 820.832 691L85.1681 691C51.9382 691 25 664.062 25 630.832Z" fill="url(#fill16)" fill-rule="evenodd"/></g></svg>